<?xml version="1.0" ?><svg id="Layer_1" style="enable-background:new 0 0 200 200;" version="1.1" viewBox="0 0 200 200" xml:space="preserve" xmlns="http://www.w3.org/2000/svg" xmlns:xlink="http://www.w3.org/1999/xlink"><style type="text/css">
	.st0{fill:url(#SVGID_1_);}
	.st1{fill:url(#SVGID_2_);}
	.st2{fill:url(#SVGID_3_);}
</style><g><linearGradient gradientUnits="userSpaceOnUse" id="SVGID_1_" x1="140.817" x2="1.8926" y1="190.9786" y2="52.0542"><stop offset="0" style="stop-color:#007FE2"/><stop offset="1" style="stop-color:#39D3B8"/></linearGradient><path class="st0" d="M69.938,135.027l-22.721,2.441c-2.889,0.307-5.476-0.982-6.921-3.455c-1.432-2.451-1.276-5.277,0.416-7.562   l13.501-18.22c1.781-2.404,2.722-5.25,2.722-8.23s-0.941-5.826-2.722-8.231L40.712,73.55c-1.693-2.285-1.849-5.111-0.416-7.562   c1.447-2.474,4.031-3.766,6.921-3.455l11.361,1.22c1.922,0.214,3.619-1.176,3.822-3.082c0.205-1.907-1.175-3.619-3.082-3.824   l-11.361-1.22c-5.585-0.602-10.834,2.025-13.657,6.857c-2.837,4.854-2.519,10.678,0.831,15.2l13.501,18.218   c0.888,1.2,1.358,2.616,1.358,4.097s-0.469,2.898-1.358,4.097l-13.501,18.219c-3.35,4.521-3.669,10.345-0.831,15.2   c2.557,4.374,7.087,6.942,12.08,6.942c0.521,0,1.048-0.028,1.577-0.085l22.721-2.441c1.907-0.205,3.286-1.917,3.082-3.824   C73.556,136.202,71.829,134.825,69.938,135.027z"/><linearGradient gradientUnits="userSpaceOnUse" id="SVGID_2_" x1="157.5073" x2="18.5829" y1="174.2883" y2="35.3639"><stop offset="0" style="stop-color:#007FE2"/><stop offset="1" style="stop-color:#39D3B8"/></linearGradient><path class="st1" d="M151.367,104.097c-1.142-1.541-3.319-1.864-4.857-0.723c-1.541,1.142-1.865,3.317-0.723,4.857l13.5,18.22   c1.694,2.284,1.85,5.111,0.418,7.562c-1.446,2.474-4.032,3.767-6.921,3.455l-22.72-2.441c-2.98-0.319-5.923,0.293-8.514,1.773   c-2.606,1.485-4.622,3.709-5.835,6.428l-9.222,20.66c-1.164,2.61-3.592,4.167-6.493,4.167c-2.901,0-5.329-1.558-6.494-4.168   l-4.61-10.33c-0.781-1.751-2.833-2.536-4.586-1.755c-1.751,0.781-2.538,2.834-1.756,4.586l4.61,10.33   C89.445,171.827,94.363,175,100,175c5.637,0,10.555-3.174,12.835-8.282l9.222-20.661c0.608-1.362,1.621-2.477,2.934-3.225   c1.317-0.752,2.82-1.064,4.329-0.9l22.723,2.441c5.583,0.602,10.834-2.025,13.657-6.857c2.837-4.855,2.519-10.679-0.833-15.2   L151.367,104.097z"/><linearGradient gradientUnits="userSpaceOnUse" id="SVGID_3_" x1="197.0797" x2="58.1553" y1="134.7159" y2="-4.2085"><stop offset="0" style="stop-color:#007FE2"/><stop offset="1" style="stop-color:#39D3B8"/></linearGradient><path class="st2" d="M84.286,56.772l9.22-20.66c1.165-2.61,3.593-4.168,6.494-4.168c2.901,0,5.329,1.558,6.493,4.168l9.222,20.658   c1.213,2.721,3.231,4.944,5.835,6.429c2.593,1.48,5.542,2.092,8.512,1.773l22.721-2.441c2.886-0.313,5.474,0.981,6.921,3.455   c1.432,2.451,1.276,5.278-0.418,7.562l-6.749,9.11c-1.142,1.541-0.818,3.716,0.723,4.857c0.621,0.46,1.345,0.682,2.064,0.682   c1.062,0,2.112-0.486,2.793-1.405l6.749-9.109c3.352-4.521,3.67-10.345,0.833-15.2c-2.824-4.83-8.055-7.461-13.657-6.857   l-22.721,2.441c-1.523,0.164-3.015-0.149-4.332-0.9c-1.31-0.748-2.325-1.864-2.932-3.227l-9.222-20.659   C110.555,28.174,105.637,25,100,25c-5.637,0-10.555,3.173-12.836,8.282l-9.22,20.66c-0.781,1.752,0.005,3.805,1.756,4.586   C81.449,59.31,83.504,58.523,84.286,56.772z"/></g></svg>